<svg id="Capa_1" enable-background="new 0 0 512 512" height="512" viewBox="0 0 512 512" width="512" xmlns="http://www.w3.org/2000/svg"><g><g><path d="m356.239 318.368 66.54 11.742c29.232 5.159 51.468 29.128 54.422 58.665l9.751 97.51c.975 9.753-6.683 18.215-16.484 18.215h-211.464l-156.258-115.725c2.954-29.537 25.189-53.506 54.422-58.665l66.54-11.742z" fill="#e55964"/><path d="m486.952 486.285-9.751-97.51c-2.954-29.537-25.189-53.506-54.422-58.665l-66.54-11.742h-23l66.54 11.742c29.232 5.159 51.468 29.128 54.422 58.665l9.751 97.51c.975 9.753-6.683 18.215-16.484 18.215h23c9.801 0 17.459-8.462 16.484-18.215z" fill="#db404f"/><path d="m397.657 123.467c4.575 0 8.283 3.709 8.283 8.283v41.417c0 9.149-7.417 16.567-16.567 16.567h-198.8c-9.149 0-16.567-7.417-16.567-16.567v-41.417c0-4.575 3.708-8.283 8.283-8.283z" fill="#f4ada1"/><path d="m331.39 354.5v-148.167h-82.833v148.167l41.416.9z" fill="#f4ada1"/><path d="m207.14 80.333v109.4c0 45.748 37.086 82.833 82.833 82.833s82.833-37.086 82.833-82.833v-109.4z" fill="#f4cab3"/><path d="m372.807 80.333h-165.637v43.133h49.7c15.235 0 28.061-10.285 31.932-24.288.151-.545.636-.929 1.201-.929.566 0 1.051.384 1.201.929 3.871 14.003 16.697 24.288 31.932 24.288h49.7z" fill="#5e5161"/><path d="m248.557 297.417-24.85 20.952 21.661 46.719c1.788 3.857 6.282 5.642 10.229 4.063l34.377-13.751z" fill="#ffd97d"/><path d="m331.39 297.417 24.85 20.952-21.661 46.719c-1.788 3.857-6.281 5.642-10.229 4.063l-34.377-13.751z" fill="#ffd97d"/><path d="m389.403 57.2v-13.136c0-2.197-.873-4.304-2.426-5.857l-28.281-28.281c-1.553-1.553-3.66-2.426-5.857-2.426h-125.671c-2.197 0-4.304.873-5.857 2.426l-28.281 28.281c-1.553 1.553-2.426 3.66-2.426 5.857v13.136l99.4 6.133z" fill="#d34848"/><path d="m386.977 38.207-28.281-28.281c-1.553-1.553-3.66-2.426-5.857-2.426h-23c2.197 0 4.304.873 5.857 2.426l28.281 28.281c1.554 1.553 2.426 3.66 2.426 5.857v37.986c0 4.575-3.708 8.283-8.283 8.283h23c4.575 0 8.283-3.708 8.283-8.283v-37.986c0-2.196-.872-4.303-2.426-5.857z" fill="#c23a3a"/><path d="m198.887 90.333h182.233c4.575 0 8.283-3.708 8.283-8.283v-24.85h-198.8v24.85c0 4.575 3.709 8.283 8.284 8.283z" fill="#faf8fa"/><path d="m366.403 57.2v24.85c0 4.575-3.708 8.283-8.283 8.283h23c4.575 0 8.283-3.708 8.283-8.283v-24.85z" fill="#eceaec"/></g><g><g><path d="m265.153 388.533c4.575 0 8.283 3.709 8.283 8.283v68.984h-231.933v-68.983c0-4.575 3.708-8.283 8.283-8.283h215.367z" fill="#81d2eb"/><path d="m66.353 338.833c-4.575 0-8.283-3.709-8.283-8.283v-66.267c0-4.575 3.709-8.283 8.283-8.283h115.967c4.575 0 8.283 3.709 8.283 8.283v59.795 6.472c0 4.575-3.709 8.283-8.283 8.283z" fill="#81d2eb"/><path d="m141.187 421.667h-33.7c-4.418 0-8-3.582-8-8v-116.534c0-4.418 3.582-8 8-8h33.7c4.418 0 8 3.582 8 8v116.533c0 4.419-3.582 8.001-8 8.001z" fill="#faf8fa"/><path d="m265.153 388.533h-23c4.575 0 8.283 3.709 8.283 8.283v68.984h23v-68.983c.001-4.575-3.708-8.284-8.283-8.284z" fill="#84b5e8"/><path d="m182.32 256h-23c4.575 0 8.283 3.708 8.283 8.283v59.795 6.472c0 4.575-3.708 8.283-8.283 8.283h23c4.575 0 8.283-3.709 8.283-8.283v-6.472-59.795c0-4.575-3.708-8.283-8.283-8.283z" fill="#84b5e8"/><path d="m141.187 289.133h-23c4.418 0 8 3.582 8 8v116.533c0 4.418-3.582 8-8 8h23c4.418 0 8-3.582 8-8v-116.533c0-4.418-3.582-8-8-8z" fill="#eceaec"/><path d="m282.003 504.5h-249.066c-4.418 0-8-3.582-8-8v-33.7c0-4.418 3.582-8 8-8h249.067c4.418 0 8 3.582 8 8v33.7c-.001 4.418-3.583 8-8.001 8z" fill="#fdbf00"/><path d="m282.003 504.5h-249.066c-4.418 0-8-3.582-8-8v-33.7c0-4.418 3.582-8 8-8h249.067c4.418 0 8 3.582 8 8v33.7c-.001 4.418-3.583 8-8.001 8z" fill="#faf8fa"/><path d="m282.003 454.8h-23c4.418 0 8 3.582 8 8v33.7c0 4.418-3.582 8-8 8h23c4.418 0 8-3.582 8-8v-33.7c0-4.418-3.581-8-8-8z" fill="#eceaec"/></g></g><path d="m339.703 430.233v-17.133c0-4.418 3.582-8 8-8h50.267c4.418 0 8 3.582 8 8v17.133c0 4.418-3.582 8-8 8h-50.267c-4.418 0-8-3.581-8-8z" fill="#faf8fa"/></g><g><path d="m494.445 485.539-9.751-97.51c-3.273-32.733-28.186-59.587-60.581-65.304l-64.551-11.392-20.642-17.403v-27.23c0-.342-.031-.677-.076-1.007 22.964-14.817 38.807-39.757 41.178-68.458h9.381c13.271 0 24.066-10.796 24.066-24.067v-41.418c0-8.703-7.08-15.783-15.783-15.783h-17.351v-18.133h.783c8.703 0 15.784-7.081 15.784-15.784v-37.986c0-4.216-1.642-8.179-4.623-11.161l-28.279-28.279c-2.98-2.981-6.944-4.624-11.161-4.624h-125.671c-4.217 0-8.181 1.642-11.161 4.623l-28.282 28.282c-2.98 2.981-4.622 6.944-4.622 11.16v37.985c0 8.703 7.08 15.784 15.783 15.784h.783v18.133h-17.35c-8.703 0-15.783 7.081-15.783 15.783v41.417c0 13.27 10.796 24.067 24.067 24.067h9.38c2.371 28.702 18.214 53.642 41.179 68.459-.045.33-.075.665-.075 1.007v27.231l-20.641 17.403-22.342 3.943v-50.993c0-8.703-7.081-15.783-15.784-15.783h-115.967c-8.703 0-15.784 7.08-15.784 15.783v66.267c0 8.703 7.081 15.784 15.784 15.784h25.633v34.7h-42.2c-8.703 0-15.783 7.081-15.783 15.784v50.481h-1.067c-8.547 0-15.5 6.953-15.5 15.5v33.7c0 8.547 6.953 15.5 15.5 15.5h341.436c4.143 0 7.5-3.358 7.5-7.5s-3.357-7.5-7.5-7.5h-76.894c.005-.168.025-.331.025-.5v-33.7c0-8.547-6.953-15.5-15.5-15.5h-1.066v-50.483c0-8.703-7.08-15.784-15.783-15.784h-108.468v-34.7h25.633c8.703 0 15.784-7.081 15.784-15.784v-.042l21.255-3.751 22.424 48.365c1.264 2.725 3.967 4.347 6.807 4.347.928 0 1.872-.173 2.783-.538l38.631-15.453 38.632 15.453c.911.365 1.855.538 2.782.538 2.84 0 5.544-1.622 6.808-4.347l22.423-48.365 60.857 10.74c25.809 4.555 45.654 25.948 48.263 52.025l9.751 97.51c.259 2.581-.559 5.062-2.299 6.986-1.741 1.923-4.128 2.983-6.723 2.983h-66.124c-4.143 0-7.5 3.358-7.5 7.5s3.357 7.5 7.5 7.5h66.124c6.787 0 13.291-2.886 17.845-7.918s6.778-11.791 6.103-18.543zm-294.775-303.306h-9.066c-5 0-9.067-4.067-9.067-9.067v-41.416c0-.432.352-.783.783-.783h17.35zm65.484 213.8c.432 0 .783.352.783.784v50.483h-150.68c-4.142 0-7.5 3.358-7.5 7.5s3.358 7.5 7.5 7.5h158.18 8.566c.275 0 .5.224.5.5v33.7c0 .276-.225.5-.5.5h-8.567-240.5c-.276 0-.5-.224-.5-.5v-33.7c0-.276.224-.5.5-.5h8.567 43.753c4.142 0 7.5-3.358 7.5-7.5s-3.358-7.5-7.5-7.5h-36.253v-50.483c0-.432.352-.784.783-.784h42.2v17.633c0 8.547 6.953 15.5 15.5 15.5h33.7c8.547 0 15.5-6.953 15.5-15.5v-17.633zm-158.167 17.634v-116.534c0-.276.224-.5.5-.5h33.7c.276 0 .5.224.5.5v116.533c0 .276-.224.5-.5.5h-33.7c-.276.001-.5-.224-.5-.499zm76.116-83.117c0 .432-.352.784-.784.784h-25.633v-34.2c0-8.547-6.953-15.5-15.5-15.5h-33.7c-8.547 0-15.5 6.953-15.5 15.5v34.2h-25.633c-.432 0-.784-.352-.784-.784v-66.267c0-.432.352-.783.784-.783h115.967c.432 0 .784.352.784.783v66.267zm182.233-214.583h-42.199c-11.526 0-21.297-7.647-24.512-18.133h66.711zm32.351 15c.432 0 .783.352.783.783v41.417c0 4.999-4.067 9.067-9.066 9.067h-9.067v-51.267zm-199.584-86.903c0-.209.081-.407.229-.554l28.282-28.282c.147-.147.344-.229.553-.229h125.671c.206 0 .407.083.553.229l28.281 28.281c.148.148.23.345.23.554v5.637h-183.8v-5.636zm.784 38.77c-.432 0-.783-.352-.783-.784v-17.35h183.8v17.35c0 .432-.352.784-.784.784zm82.494 15c-3.215 10.486-12.986 18.133-24.511 18.133h-42.2v-18.133zm-66.711 91.899v-58.767h42.2c13.663 0 25.764-6.786 33.133-17.156 7.37 10.371 19.471 17.156 33.134 17.156h42.199v58.767c0 41.539-33.794 75.333-75.333 75.333-41.539.001-75.333-33.793-75.333-75.333zm37.731 172.63-19.451-41.953 14.258-12.021 31.139 43.596zm3.686-67.35v-21.56c10.478 4.26 21.927 6.614 33.917 6.614s23.439-2.354 33.917-6.614v21.561l-33.917 47.483zm71.519 67.35-25.946-10.378 31.14-43.596 14.257 12.021z"/><path d="m413.47 438.233v-33.133c0-4.142-3.357-7.5-7.5-7.5h-66.267c-4.143 0-7.5 3.358-7.5 7.5v33.133c0 4.142 3.357 7.5 7.5 7.5h66.267c4.143 0 7.5-3.358 7.5-7.5zm-15-7.5h-51.267v-18.133h51.267z"/><path d="m256.87 140.817c-4.142 0-7.5 3.358-7.5 7.5v8.283c0 4.142 3.358 7.5 7.5 7.5s7.499-3.358 7.499-7.5v-8.283c0-4.142-3.357-7.5-7.499-7.5z"/><path d="m323.137 164.1c4.143 0 7.5-3.358 7.5-7.5v-8.283c0-4.142-3.357-7.5-7.5-7.5s-7.5 3.358-7.5 7.5v8.283c0 4.142 3.357 7.5 7.5 7.5z"/><path d="m207.17 429.167h16.567c4.142 0 7.5-3.358 7.5-7.5s-3.358-7.5-7.5-7.5h-16.567c-4.142 0-7.5 3.358-7.5 7.5s3.358 7.5 7.5 7.5z"/></g></svg>