<svg id="Layer_5" enable-background="new 0 0 64 64" height="512" viewBox="0 0 64 64" width="512" xmlns="http://www.w3.org/2000/svg"><g><g><g><path d="m26 2v8h16c1.105 0 2 .895 2 2v14c0 1.1-.9 2-2 2h-2v6h6c1.1 0 2 .9 2 2v16h14v-50z" fill="#e6e9ed"/></g><g><path d="m58 6v18h-14v-12c0-1.1-.9-2-2-2h-12v-4z" fill="#ff826e"/></g><g><path d="m48 52v4c0 1.1-.9 2-2 2h-23.03l1.64-1.64-.74-1.53c.2-.41.38-.83.53-1.26l1.6-.57v-6l-1.6-.57c-.15-.43-.33-.85-.53-1.26l.74-1.53-4.25-4.25-1.53.74c-.41-.2-.83-.38-1.26-.53l-.57-1.6h-5v-26c0-1.1.9-2 2-2h12 4 12c1.1 0 2 .9 2 2v12 2c0 1.1-.9 2-2 2h-2v6h6c1.1 0 2 .9 2 2z" fill="#b4dd7f"/></g><g><path d="m16 14h24v10h-24z" fill="#e6e9ed"/></g><g><path d="m26 47v6l-1.6.57c-.15.43-.33.85-.53 1.26l.74 1.53-1.64 1.64-2.61 2.61-1.53-.74c-.41.2-.83.38-1.26.53l-.57 1.6h-6l-.57-1.6c-.43-.15-.85-.33-1.26-.53l-1.53.74-4.25-4.25.74-1.53c-.2-.41-.38-.83-.53-1.26l-1.6-.57v-6l1.6-.57c.15-.43.33-.85.53-1.26l-.74-1.53 4.25-4.25 1.53.74c.41-.2.83-.38 1.26-.53l.57-1.6h1 5l.57 1.6c.43.15.85.33 1.26.53l1.53-.74 4.25 4.25-.74 1.53c.2.41.38.83.53 1.26zm-5 3c0-3.87-3.13-7-7-7s-7 3.13-7 7 3.13 7 7 7 7-3.13 7-7z" fill="#ffc729"/></g><g><path d="m14 43c3.87 0 7 3.13 7 7s-3.13 7-7 7-7-3.13-7-7 3.13-7 7-7zm3 7c0-1.66-1.34-3-3-3s-3 1.34-3 3 1.34 3 3 3 3-1.34 3-3z" fill="#fcd770"/></g></g><g><path d="m14 42c-4.411 0-8 3.589-8 8s3.589 8 8 8 8-3.589 8-8-3.589-8-8-8zm0 14c-3.309 0-6-2.691-6-6s2.691-6 6-6 6 2.691 6 6-2.691 6-6 6z"/><path d="m14 46c-2.206 0-4 1.794-4 4s1.794 4 4 4 4-1.794 4-4-1.794-4-4-4zm0 6c-1.103 0-2-.897-2-2s.897-2 2-2 2 .897 2 2-.897 2-2 2z"/><path d="m63 1h-38v8h-11c-1.654 0-3 1.346-3 3v25h-.708l-.644 1.826c-.158.062-.315.127-.471.196l-1.749-.836-5.241 5.244.836 1.748c-.069.157-.135.314-.196.471l-1.827.643v7.415l1.826.645c.062.157.127.314.196.471l-.835 1.747 5.242 5.244 1.749-.836c.155.069.313.134.471.196l.643 1.826h7.416l.644-1.826c.158-.062.315-.127.471-.196l1.749.836 2.812-2.814h22.616c1.654 0 3-1.346 3-3v-3h14zm-42.843 58.399-1.335-.638-.436.214c-.375.185-.761.345-1.146.477l-.458.157-.49 1.391h-4.584l-.491-1.392-.458-.157c-.385-.132-.771-.292-1.146-.477l-.436-.214-1.335.638-3.242-3.242.639-1.334-.214-.435c-.187-.381-.347-.766-.477-1.146l-.156-.458-1.392-.491v-4.585l1.393-.491.156-.458c.13-.38.29-.765.477-1.146l.214-.435-.639-1.334 3.242-3.242 1.335.638.436-.214c.375-.185.761-.345 1.146-.477l.458-.157.49-1.391h4.584l.491 1.392.458.157c.385.132.771.292 1.146.477l.436.214 1.335-.638 3.242 3.242-.639 1.334.214.435c.187.381.347.766.477 1.146l.156.458 1.392.491v4.585l-1.393.491-.156.458c-.13.38-.29.765-.477 1.146l-.214.435.639 1.334zm26.843-3.399c0 .551-.448 1-1 1h-20.616l.43-.43-.836-1.748c.069-.157.135-.314.196-.471l1.826-.643v-7.415l-1.826-.645c-.062-.157-.127-.314-.196-.471l.836-1.748-5.242-5.244-1.749.836c-.155-.069-.313-.134-.471-.196l-.644-1.825h-4.708v-25c0-.551.448-1 1-1h28c.552 0 1 .449 1 1v14c0 .551-.448 1-1 1h-3v8h7c.552 0 1 .449 1 1zm-5-47h-11v-2h26v16h-12v-11c0-1.654-1.346-3-3-3zm19 42h-12v-15c0-1.654-1.346-3-3-3h-5v-4h1c1.654 0 3-1.346 3-3v-1h14v-20h-30v4h-2v-6h34z"/><path d="m43 53h2v2h-2z"/><path d="m39 53h2v2h-2z"/><path d="m35 53h2v2h-2z"/><path d="m35 49h10v2h-10z"/><path d="m35 45h10v2h-10z"/><path d="m41 13h-26v12h26zm-2 10h-22v-8h22z"/><path d="m47 27h12v2h-12z"/><path d="m51 31h8v2h-8z"/><path d="m51 35h8v2h-8z"/><path d="m51 39h8v2h-8z"/><path d="m51 43h8v2h-8z"/><path d="m51 47h8v2h-8z"/></g></g></svg>